<?xml version="1.0" encoding="utf-8"?>
<!-- Generator: Adobe Illustrator 23.0.1, SVG Export Plug-In . SVG Version: 6.00 Build 0)  -->
<svg version="1.1" xmlns="http://www.w3.org/2000/svg" xmlns:xlink="http://www.w3.org/1999/xlink" x="0px" y="0px"
	 viewBox="0 0 195 213" style="enable-background:new 0 0 195 213;" xml:space="preserve">
<style type="text/css">
	.st0{fill:#0071BC;}
	.st1{opacity:0.7;fill:#29ABE2;}
</style>
<g id="Camada_2">
</g>
<g id="Camada_1">
	<path class="st0" d="M165.8,52.2H62.7V25.5c0-8,6.5-14.5,14.5-14.5h74c8,0,14.6,6.5,14.6,14.5V52.2z"/>
	<path class="st1" d="M151.3,95.9h-25.5V11H77.4c-8,0-14.6,6.5-14.6,14.5v70.3H34.9c-8,0-14.5,6.5-14.5,14.6v33.9
		c0,8,6.5,14.6,14.5,14.6h27.9v31.5c0,8,6.5,14.6,14.6,14.6h33.9c8,0,14.6-6.5,14.6-14.6v-31.5h25.5c8,0,14.5-6.5,14.5-14.6v-33.9
		C165.9,102.4,159.4,95.9,151.3,95.9z"/>
</g>
</svg>
